<?xml version="1.0" standalone="no"?>
<!DOCTYPE svg PUBLIC "-//W3C//DTD SVG 20010904//EN"
 "http://www.w3.org/TR/2001/REC-SVG-20010904/DTD/svg10.dtd">
<svg version="1.0" xmlns="http://www.w3.org/2000/svg"
 width="512.000000pt" height="512.000000pt" viewBox="0 0 512.000000 512.000000"
 preserveAspectRatio="xMidYMid meet">

<g transform="translate(0.000000,512.000000) scale(0.100000,-0.100000)"
fill="#000000" stroke="none">
<path d="M1305 3991 c-832 -383 -1068 -496 -1097 -524 -41 -39 -54 -85 -44
-143 13 -69 58 -98 399 -253 l316 -144 3 -626 3 -626 26 -55 c55 -115 140
-193 299 -274 202 -103 464 -170 810 -208 173 -19 632 -16 810 6 572 68 937
229 1053 465 l32 66 3 626 3 626 122 56 c67 30 157 71 200 91 l77 35 0 -767 0
-767 -64 -33 c-128 -66 -226 -205 -249 -352 -40 -258 145 -505 406 -543 311
-45 585 228 540 538 -21 150 -119 290 -249 357 l-64 33 0 913 c0 984 2 939
-52 988 -12 12 -502 243 -1088 513 -767 354 -1075 491 -1100 491 -25 0 -345
-143 -1095 -489z m1952 -242 c458 -211 833 -386 833 -389 0 -9 -1665 -774
-1686 -774 -20 -1 -1694 764 -1694 774 0 11 1676 779 1695 776 11 -1 395 -176
852 -387z m-1446 -1253 c383 -176 566 -256 590 -256 23 0 215 83 617 269 l582
269 0 -519 0 -518 -33 -33 c-103 -104 -428 -207 -782 -249 -144 -18 -614 -18
-760 -1 -235 27 -460 80 -612 143 -87 37 -187 100 -202 128 -8 13 -11 188 -11
536 l0 516 28 -14 c15 -8 277 -130 583 -271z m2732 -1230 c103 -43 128 -177
48 -257 -65 -65 -157 -65 -222 0 -124 123 13 325 174 257z"/>
</g>
</svg>
